<?xml version="1.0" encoding="utf-8"?><svg version="1.1" id="Layer_1" x="0px" y="0px" viewBox="0 0 151 73" style="enable-background:new 0 0 151 73;" xml:space="preserve" xmlns="http://www.w3.org/2000/svg">
<style type="text/css">
	.st0{clip-path:url(#SVGID_00000183213458303864412990000013000210303095625386_);fill:#3F1C51;}
	.st1{clip-path:url(#SVGID_00000183213458303864412990000013000210303095625386_);fill:#36B778;}
	.st2{fill:#3F1C51;}
	.st3{clip-path:url(#SVGID_00000055685295741817053620000002357187994459317399_);fill:#3F1C51;}
	.st4{clip-path:url(#SVGID_00000098929969037050889040000016930861907160002458_);fill:#3F1C51;}
</style>
<g>
	<defs>
		<rect id="SVGID_1_" x="11.52" y="9.65" width="128" height="53.2" />
	</defs>
	<clipPath id="SVGID_00000102526831598004600070000011111264434485078679_">
		<use p4:href="#SVGID_1_" style="overflow:visible;" xmlns:p4="http://www.w3.org/1999/xlink" />
	</clipPath>
	<path style="clip-path:url(#SVGID_00000102526831598004600070000011111264434485078679_);fill:#3F1C51;" d="M61.41,38.35   c1.53,1.51,3.35,2.69,5.34,3.47c2.17,0.83,4.47,1.25,6.79,1.24h0.11c2.26,0,4.51-0.42,6.62-1.24c4.02-1.55,7.21-4.71,8.81-8.71   c0.85-2.14,1.28-4.42,1.26-6.73c0-5.02-1.42-9.2-4.1-12.13c-1.25-1.36-2.78-2.44-4.49-3.16c-1.78-0.73-3.68-1.1-5.6-1.09   c-2.38,0.03-4.73,0.49-6.94,1.37l2.15,6.69c1.07-0.42,2.22-0.65,3.37-0.67c1.99-0.05,3.9,0.8,5.19,2.33   C81.3,21.3,82,23.59,82,26.34c0,5.28-3.55,9.12-8.46,9.12H73.4c-2.27,0-4.44-0.93-6.01-2.57c-1.61-1.79-2.47-4.13-2.41-6.53V10.67   h-8.35v15.67c-0.02,2.31,0.41,4.59,1.26,6.73C58.7,35.06,59.89,36.85,61.41,38.35" />
	<path style="clip-path:url(#SVGID_00000102526831598004600070000011111264434485078679_);fill:#3F1C51;" d="M125.72,42.73   c1.79-0.03,3.57-0.4,5.22-1.08c1.7-0.72,3.22-1.79,4.47-3.16c2.68-2.92,4.1-7.11,4.1-12.13c0.02-2.3-0.41-4.59-1.26-6.73   c-1.6-4-4.78-7.16-8.79-8.74c-2.1-0.82-4.33-1.24-6.59-1.24h-0.25c-2.28,0-4.54,0.42-6.67,1.24c-2,0.78-3.83,1.95-5.36,3.46   c-1.53,1.49-2.73,3.29-3.53,5.27c-0.86,2.14-1.29,4.42-1.28,6.73v15.68h8.35V26.35c-0.06-2.41,0.81-4.75,2.43-6.53   c1.59-1.64,3.77-2.57,6.06-2.58h0.14c2.28-0.03,4.47,0.91,6.03,2.57c1.58,1.8,2.42,4.13,2.36,6.53c0,2.74-0.72,5.04-2.07,6.63   c-1.29,1.52-3.19,2.37-5.18,2.32c-1.14-0.01-2.28-0.24-3.34-0.67l-2.14,6.73c2.21,0.88,4.56,1.34,6.94,1.37H125.72z" />
	<path style="clip-path:url(#SVGID_00000102526831598004600070000011111264434485078679_);fill:#3F1C51;" d="M26.4,19.19   c2.01-1.09,4.94-2.41,8.21-2.41c1.15-0.02,2.29,0.21,3.34,0.67c0.98,0.44,1.83,1.1,2.49,1.94c1.32,1.65,2.02,4.06,2.02,6.97v8.72   H24.64v6.94h29.8v-6.94h-3.68v-9.37c0.04-2.34-0.25-4.68-0.87-6.94c-0.5-1.82-1.4-3.51-2.64-4.93c-1.23-1.34-2.77-2.37-4.49-2.97   c-2.14-0.72-4.38-1.06-6.63-1.02c-4.36,0.02-8.63,1.18-12.4,3.36L26.4,19.19z" />
	<path style="clip-path:url(#SVGID_00000102526831598004600070000011111264434485078679_);fill:#3F1C51;" d="M93.95,27.93h8.35   v-11.4c0-0.73-0.03-1.85-0.15-3.08c-0.08-0.93-0.23-1.85-0.46-2.76h-8.31c0.39,1.92,0.58,3.88,0.57,5.84V27.93z" />
	<path style="clip-path:url(#SVGID_00000102526831598004600070000011111264434485078679_);fill:#36B778;" d="M11.52,38.08   c0.01,2.5,2.03,4.52,4.53,4.51h0c1.19,0,2.34-0.47,3.19-1.31c1.75-1.76,1.75-4.62-0.01-6.37c-0.84-0.84-1.99-1.31-3.18-1.31   C13.56,33.58,11.53,35.59,11.52,38.08" />
	<path style="clip-path:url(#SVGID_00000102526831598004600070000011111264434485078679_);fill:#36B778;" d="M19.24,15.77   c-0.85-0.84-2-1.31-3.19-1.32c-2.46-0.03-4.48,1.95-4.51,4.41c0,0.01,0,0.03,0,0.05v0.1c0.02,2.47,2.02,4.46,4.48,4.46h0.36   c2.39-0.16,4.25-2.16,4.22-4.56C20.59,17.72,20.1,16.59,19.24,15.77" />
	<path style="clip-path:url(#SVGID_00000102526831598004600070000011111264434485078679_);fill:#3F1C51;" d="M19.06,50.57   c3.12,0,4.46,1.36,4.46,4.57v4.95h-1.49v-4.95c0-2.25-0.9-3.3-3-3.3H16.7v6.09c0,1.54-0.83,2.25-2.03,2.25   c-0.56,0-1.32-0.11-1.76-0.27l0.21-1.17c0.32,0.11,0.65,0.17,1.1,0.17c0.73,0,1.02-0.43,1.02-1.4v-5.68h-1.36v-1.27H19.06z" />
</g>
<rect x="29.69" y="50.57" class="st2" width="1.49" height="9.52" />
<g>
	<defs>
		<rect id="SVGID_00000039854665051625666160000005349569654483151800_" x="11.52" y="9.65" width="128" height="53.2" />
	</defs>
	<clipPath id="SVGID_00000062186934195507517580000017923383273825123972_">
		<use p4:href="#SVGID_00000039854665051625666160000005349569654483151800_" style="overflow:visible;" xmlns:p4="http://www.w3.org/1999/xlink" />
	</clipPath>
	<path style="clip-path:url(#SVGID_00000062186934195507517580000017923383273825123972_);fill:#3F1C51;" d="M44.09,50.57h1.49v3.11   c0,4.28-1.67,6.81-8.58,7.11l-0.11-1.22c0.97-0.06,1.83-0.17,2.55-0.3l-2.24-8.69h1.54l2.13,8.35c2.46-0.79,3.22-2.32,3.22-5.24   V50.57z" />
	<path style="clip-path:url(#SVGID_00000062186934195507517580000017923383273825123972_);fill:#3F1C51;" d="M53.17,54.58v8.27   h-1.44v-8.08L53.17,54.58z M51.62,50.57h8.74v5.51c0,3.09-1.35,4.12-3.35,4.12c-0.71,0-1.3-0.08-1.92-0.27l0.17-1.24   c0.49,0.14,1.06,0.24,1.56,0.24c1.44,0,2.09-0.75,2.09-3v-4.09h-7.3V50.57z" />
	<path style="clip-path:url(#SVGID_00000062186934195507517580000017923383273825123972_);fill:#3F1C51;" d="M72.48,50.57v5.46   l-1.49,0.32v-5.77H72.48z M75.67,50.57h1.49v4.32c0,3.33-2.06,5.39-5.43,5.39c-3.36,0-5.43-2.06-5.43-5.39v-4.32h1.49v4.35   c0,2.51,1.52,4.09,3.94,4.09c2.41,0,3.93-1.59,3.93-4.09V50.57z" />
	<path style="clip-path:url(#SVGID_00000062186934195507517580000017923383273825123972_);fill:#3F1C51;" d="M83.21,55.01l1.49-0.21   v5.28h-1.49V55.01z M83.1,50.57h4.09c3.11,0,4.54,1.49,4.54,4.76v4.76h-1.49v-4.76c0-2.43-0.94-3.49-3.05-3.49H83.1V50.57z" />
	<path style="clip-path:url(#SVGID_00000062186934195507517580000017923383273825123972_);fill:#3F1C51;" d="M111.4,50.57   c3.12,0,4.46,1.36,4.46,4.57v4.95h-1.49v-4.95c0-2.25-0.9-3.3-3-3.3h-2.33v6.09c0,1.54-0.83,2.25-2.03,2.25   c-0.56,0-1.32-0.11-1.76-0.27l0.21-1.17c0.32,0.11,0.65,0.17,1.1,0.17c0.73,0,1.01-0.43,1.01-1.4v-5.68h-1.36v-1.27H111.4z" />
</g>
<polygon class="st2" points="121.62,50.57 123.12,50.57 123.12,55.95 121.62,56.2 " />
<g>
	<defs>
		<rect id="SVGID_00000001625705813455373060000013876764270071654566_" x="11.52" y="9.65" width="128" height="53.2" />
	</defs>
	<clipPath id="SVGID_00000163064994964720790460000007548527677681407382_">
		<use p4:href="#SVGID_00000001625705813455373060000013876764270071654566_" style="overflow:visible;" xmlns:p4="http://www.w3.org/1999/xlink" />
	</clipPath>
	<path style="clip-path:url(#SVGID_00000163064994964720790460000007548527677681407382_);fill:#3F1C51;" d="M136.75,58.82h1.41   v1.27h-9.33v-1.27h6.43v-3.79c0-2-0.87-3.38-2.9-3.38c-1.17,0-2.21,0.38-3.21,0.92l-0.49-1.11c1.25-0.73,2.57-1.08,3.92-1.08   c2.98,0,4.17,1.75,4.17,4.55V58.82z" />
</g>
</svg>