<?xml version="1.0" encoding="UTF-8"?>
<svg xmlns="http://www.w3.org/2000/svg" width="169.077" height="58.974" xmlns:xlink="http://www.w3.org/1999/xlink" viewBox="0 0 169.077 58.974">
  <defs>
    <style>
      .cls-1 {
        fill: url(#linear-gradient-2);
      }

      .cls-2 {
        stroke: #1c2b39;
        stroke-miterlimit: 10;
        stroke-width: .2px;
      }

      .cls-2, .cls-3 {
        fill: #1c2b39;
      }

      .cls-4 {
        fill: url(#linear-gradient-3);
      }

      .cls-5 {
        fill: url(#linear-gradient-4);
      }

      .cls-5, .cls-6 {
        mix-blend-mode: multiply;
      }

      .cls-7 {
        isolation: isolate;
      }

      .cls-6 {
        fill: url(#linear-gradient-5);
      }

      .cls-8 {
        fill: url(#linear-gradient);
      }

      .cls-9 {
        fill: #00aeef;
      }
    </style>
    <linearGradient id="linear-gradient" x1="18.807" y1="24.704" x2="22.276" y2="24.704" gradientUnits="userSpaceOnUse">
      <stop offset=".216" stop-color="#0082c9"/>
      <stop offset=".246" stop-color="#0085cb"/>
      <stop offset=".513" stop-color="#009bdb"/>
      <stop offset=".769" stop-color="#00a8e4"/>
      <stop offset="1" stop-color="#00ade8"/>
    </linearGradient>
    <linearGradient id="linear-gradient-2" x1=".651" y1="24.702" x2="10.578" y2="24.702" gradientUnits="userSpaceOnUse">
      <stop offset="0" stop-color="#00b060"/>
      <stop offset=".215" stop-color="#00af81"/>
      <stop offset=".753" stop-color="#00aecf"/>
      <stop offset="1" stop-color="#00aeef"/>
    </linearGradient>
    <linearGradient id="linear-gradient-3" x1="23.432" y1="24.704" x2="33.359" y2="24.704" gradientUnits="userSpaceOnUse">
      <stop offset="0" stop-color="#00aeef"/>
      <stop offset=".13" stop-color="#00aee6"/>
      <stop offset=".342" stop-color="#00aecd"/>
      <stop offset=".609" stop-color="#00afa6"/>
      <stop offset=".919" stop-color="#00af6f"/>
      <stop offset="1" stop-color="#00b060"/>
    </linearGradient>
    <linearGradient id="linear-gradient-4" x1="-201.943" y1="16.627" x2="-206.711" y2="16.627" gradientTransform="translate(-177.797) rotate(-180) scale(1 -1)" gradientUnits="userSpaceOnUse">
      <stop offset=".2" stop-color="#003d58"/>
      <stop offset="1" stop-color="#fff" stop-opacity="0"/>
    </linearGradient>
    <linearGradient id="linear-gradient-5" x1="-302.56" y1="16.629" x2="-297.792" y2="16.629" gradientTransform="translate(311.263)" gradientUnits="userSpaceOnUse">
      <stop offset="0" stop-color="#fff" stop-opacity="0"/>
      <stop offset=".8" stop-color="#002a41"/>
    </linearGradient>
  </defs>
  <g class="cls-7">
    <g id="Israel">
      <g>
        <g>
          <path class="cls-3" d="M95.539,22.906c-.688.187-1.486.37-2.395.549-.909.18-1.849.352-2.819.517-.971.165-1.938.319-2.902.463-.964.144-1.838.266-2.622.366.041.903.145,1.699.31,2.387.165.688.457,1.265.877,1.731.419.466.99.817,1.712,1.053.722.237,1.653.355,2.794.354s2.104-.093,2.887-.28c.784-.186,1.433-.395,1.949-.624s.924-.441,1.227-.635c.302-.193.543-.304.722-.333.33-.014.598.086.804.301s.309.494.309.839c0,.459-.179.892-.536,1.301s-.869.771-1.536,1.087c-.666.315-1.474.567-2.423.753-.948.187-2.021.28-3.217.28-1.389,0-2.578-.107-3.568-.322-.99-.215-1.817-.533-2.481-.956-.665-.422-1.191-.935-1.581-1.537-.389-.602-.687-1.293-.892-2.075-.205-.781-.335-1.645-.39-2.591-.055-.946-.082-1.964-.082-3.054,0-1.735.105-3.312.318-4.731s.645-2.627,1.298-3.624c.652-.996,1.581-1.767,2.783-2.313,1.203-.545,2.787-.818,4.754-.819,1.278,0,2.461.121,3.547.365,1.086.244,2.031.623,2.836,1.139.805.515,1.441,1.182,1.908,1.999.468.817.729,1.8.784,2.946.041.803.007,1.491-.103,2.065-.11.574-.33,1.075-.66,1.505-.331.43-.788.796-1.373,1.097-.585.301-1.332.567-2.241.796ZM91.657,13.552c-1.074,0-1.99.09-2.747.269-.758.179-1.384.441-1.88.785s-.888.768-1.178,1.269c-.289.502-.506,1.079-.65,1.731-.145.653-.241,1.377-.289,2.172s-.085,1.653-.112,2.57c.592-.086,1.297-.19,2.117-.312.819-.122,1.666-.255,2.541-.398.875-.143,1.735-.291,2.582-.441.847-.151,1.601-.298,2.262-.442.936-.215,1.618-.562,2.045-1.043.427-.48.606-1.208.537-2.183-.028-.645-.193-1.215-.497-1.71-.303-.494-.695-.91-1.178-1.247-.482-.337-1.03-.591-1.642-.763s-1.25-.258-1.911-.257Z"/>
          <path class="cls-3" d="M149.546,22.906c-.688.187-1.486.37-2.395.549-.909.18-1.849.352-2.819.517-.971.165-1.938.319-2.902.463-.964.144-1.838.266-2.622.366.041.903.145,1.699.31,2.387.165.688.457,1.265.877,1.731.419.466.99.817,1.712,1.053.722.237,1.653.355,2.794.354s2.104-.093,2.887-.28c.784-.186,1.433-.395,1.949-.624.516-.23.924-.441,1.227-.635.302-.193.543-.304.722-.333.33-.014.598.086.804.301s.309.494.309.839c0,.459-.179.892-.536,1.301s-.869.771-1.536,1.087c-.666.315-1.474.567-2.423.753-.948.187-2.021.28-3.217.28-1.389,0-2.578-.107-3.568-.322-.99-.215-1.817-.533-2.481-.956-.665-.422-1.191-.935-1.581-1.537-.389-.602-.687-1.293-.892-2.075-.205-.781-.335-1.645-.39-2.591-.055-.946-.082-1.964-.082-3.054,0-1.735.105-3.312.318-4.731s.645-2.627,1.298-3.624c.652-.996,1.581-1.767,2.783-2.313,1.203-.545,2.787-.818,4.754-.819,1.278,0,2.461.121,3.547.365,1.086.244,2.031.623,2.836,1.139.805.515,1.441,1.182,1.908,1.999.468.817.729,1.8.784,2.946.041.803.007,1.491-.103,2.065-.11.574-.33,1.075-.66,1.505-.331.43-.788.796-1.373,1.097-.585.301-1.332.567-2.241.796ZM145.664,13.552c-1.074,0-1.99.09-2.747.269-.758.179-1.384.441-1.88.785s-.888.768-1.178,1.269c-.289.502-.506,1.079-.65,1.731-.145.653-.241,1.377-.289,2.172s-.085,1.653-.112,2.57c.592-.086,1.297-.19,2.117-.312.819-.122,1.666-.255,2.541-.398.875-.143,1.735-.291,2.582-.441.847-.151,1.601-.298,2.262-.442.936-.215,1.618-.562,2.045-1.043.427-.48.606-1.208.537-2.183-.028-.645-.193-1.215-.497-1.71-.303-.494-.695-.91-1.178-1.247-.482-.337-1.03-.591-1.642-.763s-1.25-.258-1.911-.257Z"/>
          <path class="cls-3" d="M104.519,5.681c0-.821.695-1.546,1.482-1.546.834,0,1.482.725,1.482,1.546v5.072h5.611c.787,0,1.389.628,1.389,1.449s-.602,1.449-1.389,1.449h-5.611v13.332c0,2.077,1.112,3.188,2.687,3.188.787,0,1.436.628,1.436,1.449s-.648,1.449-1.436,1.449c-3.659,0-5.651-2.561-5.651-6.087v-13.332h-1.806c-.787,0-1.389-.628-1.389-1.449s.602-1.449,1.389-1.449h1.806v-5.072Z"/>
          <path class="cls-3" d="M118.262,10.753h12.691c.788,0,1.389.628,1.389,1.449,0,.435-.184.773-.323.966l-11.534,16.52h10.699c.788,0,1.436.676,1.436,1.498s-.648,1.497-1.436,1.497h-13.571c-.787,0-1.39-.628-1.39-1.449,0-.434.139-.725.325-.966l11.672-16.617h-9.958c-.787,0-1.389-.628-1.389-1.449s.602-1.449,1.389-1.449Z"/>
          <path class="cls-3" d="M161.203,14.039c.926-2.223,3.243-3.865,6.439-3.865.787,0,1.436.677,1.436,1.498s-.649,1.497-1.436,1.497c-4.263,0-6.439,3.092-6.439,7.536v10.82c0,.869-.649,1.546-1.482,1.546s-1.482-.677-1.482-1.546V11.913c0-.87.649-1.546,1.482-1.546s1.482.676,1.482,1.546v2.125Z"/>
          <path class="cls-3" d="M70.214,9.976c-3.566,0-5.605,1.498-6.763,3.382l-.523,1.343-.523-1.343c-1.158-1.884-3.196-3.382-6.763-3.382-7.133,0-8.754,4.444-8.754,8.55v12.898c0,.869.648,1.546,1.482,1.546s1.482-.677,1.482-1.546v-12.27c0-3.816,1.297-6.425,5.79-6.425,3.984,0,5.79,2.222,5.79,5.796v12.898c0,.869.649,1.546,1.482,1.546.005,0,.009-.003.014-.003.005,0,.009.003.014.003.833,0,1.482-.677,1.482-1.546v-12.898c0-3.575,1.806-5.796,5.79-5.796,4.493,0,5.79,2.608,5.79,6.425v12.27c0,.869.648,1.546,1.482,1.546s1.482-.677,1.482-1.546v-12.898c0-4.106-1.621-8.55-8.754-8.55Z"/>
        </g>
        <g>
          <path class="cls-9" d="M27.742,14.649c.722-1.402,1.121-2.973,1.121-4.593,0-5.545-4.511-10.057-10.056-10.057h0c-5.545,0-10.056,4.511-10.056,10.057,0,1.62.4,3.19,1.121,4.593-5.46.1-9.871,4.569-9.871,10.052,0,5.545,4.511,10.057,10.057,10.057,3.747,0,7.02-2.061,8.75-5.108,1.73,3.047,5.003,5.108,8.75,5.108,5.545,0,10.057-4.511,10.057-10.057,0-5.483-4.411-9.952-9.871-10.052ZM10.057,31.69c-3.853,0-6.989-3.135-6.989-6.989s3.135-6.989,6.989-6.989,6.989,3.135,6.989,6.989-3.135,6.989-6.989,6.989ZM18.807,19.753c-.587-1.034-1.355-1.952-2.256-2.717l.005-.002c-.602-.519-1.109-.842-1.305-.96-2.118-1.255-3.433-3.557-3.433-6.017,0-3.853,3.135-6.989,6.988-6.989h0c3.853,0,6.988,3.135,6.988,6.989,0,2.46-1.315,4.762-3.433,6.017-.196.118-.703.441-1.305.96l.005.002c-.901.765-1.668,1.683-2.256,2.717ZM27.556,31.69c-3.854,0-6.989-3.135-6.989-6.989s3.135-6.989,6.989-6.989,6.989,3.135,6.989,6.989-3.135,6.989-6.989,6.989Z"/>
          <path class="cls-8" d="M22.276,29.31c-1.061-1.226-1.708-2.864-1.708-4.609s.647-3.373,1.708-4.599v-3.943c-.425.265-.834.553-1.215.876h0c-.441.375-.848.787-1.22,1.23-.021.025-.041.05-.061.075-.156.19-.305.387-.447.588-.027.038-.055.076-.082.115-.157.23-.307.465-.445.708.83,1.462,1.306,3.149,1.306,4.947s-.477,3.486-1.307,4.948c.836,1.472,2.034,2.71,3.469,3.601v-3.938Z"/>
          <path class="cls-1" d="M13.923,30.52c-1.107.736-2.432,1.167-3.858,1.167-3.853,0-6.989-3.135-6.989-6.989s3.135-6.989,6.989-6.989c.714,0,1.404.109,2.053.309h.002c.643.18,1.36.585,1.36.585-2.81-1.978-3.6-3.956-3.6-3.956-.551,0-1.169.089-1.169.089h0C3.804,15.402.008,19.613.008,24.698c0,5.545,4.511,10.057,10.057,10.057,1.725,0,3.347-.441,4.767-1.21l-.909-3.025Z"/>
          <path class="cls-4" d="M28.912,14.741s.001-.002.002-.003c0,0-.618-.089-1.169-.089,0,0-.789,1.978-3.6,3.956,0,0,.715-.405,1.358-.583h0c.65-.2,1.339-.309,2.053-.309,3.853,0,6.989,3.135,6.989,6.989s-3.135,6.989-6.989,6.989c-1.425,0-2.751-.431-3.858-1.167l-.909,3.025c1.42.769,3.042,1.21,4.767,1.21,5.545,0,10.057-4.511,10.057-10.057,0-5.085-3.795-9.295-8.701-9.96Z"/>
          <path class="cls-5" d="M24.146,18.605s.716-.406,1.36-.584c0,0,2.43-1.33,3.409-3.282,0,0-.618-.089-1.169-.089,0,0-.789,1.978-3.6,3.956Z"/>
          <path class="cls-6" d="M13.471,18.607s-.716-.406-1.36-.584c0,0-2.43-1.33-3.409-3.282,0,0,.618-.089,1.169-.089,0,0,.789,1.978,3.6,3.956Z"/>
        </g>
      </g>
      <g>
        <path class="cls-2" d="M46.889,53.049v-13.664c0-.2.071-.376.215-.526.143-.15.318-.226.526-.226s.385.075.531.226.221.326.221.526v13.664c0,.201-.074.375-.221.521s-.324.22-.531.22-.384-.073-.526-.22c-.144-.146-.215-.32-.215-.521Z"/>
        <path class="cls-2" d="M50.864,51.878c0-.179.061-.329.183-.451.121-.122.271-.183.451-.183.179,0,.34.072.483.215.723.724,1.654,1.085,2.793,1.085.688,0,1.247-.127,1.681-.381s.65-.649.65-1.187c0-.271-.083-.512-.247-.719-.165-.207-.384-.376-.656-.505-.272-.128-.582-.253-.93-.374-.348-.12-.7-.242-1.058-.365-.357-.125-.71-.273-1.058-.449s-.657-.369-.929-.58c-.272-.211-.491-.487-.655-.828-.165-.34-.247-.725-.247-1.154,0-.873.312-1.534.939-1.982.627-.447,1.435-.671,2.423-.671,1.525,0,2.639.47,3.341,1.407.107.144.161.283.161.419,0,.179-.063.329-.188.451s-.277.183-.456.183c-.18,0-.333-.064-.462-.193-.322-.308-.668-.539-1.037-.693-.369-.153-.821-.23-1.358-.23-.566,0-1.033.104-1.402.311-.369.208-.553.548-.553,1.021,0,.275.081.523.244.741s.379.396.648.535c.269.138.579.269.93.393s.703.247,1.058.372.706.273,1.056.445c.35.173.661.359.936.561.273.2.493.464.659.791.166.328.249.699.249,1.114,0,.645-.169,1.19-.505,1.638-.337.448-.781.772-1.332.973-.552.2-1.186.301-1.901.301-.831,0-1.583-.161-2.256-.483-.674-.322-1.175-.69-1.504-1.106-.101-.143-.15-.283-.15-.419Z"/>
        <path class="cls-2" d="M60.886,53.092v-8.938c0-.2.067-.367.204-.5.136-.132.304-.198.505-.198s.366.066.499.198c.133.133.199.3.199.5v.967c.229-.522.612-.945,1.149-1.268s1.174-.483,1.912-.483c.186,0,.345.066.478.198.133.133.199.293.199.479,0,.187-.066.348-.199.483s-.292.204-.478.204c-.981,0-1.737.312-2.267.935-.53.623-.795,1.454-.795,2.492v4.931c0,.201-.066.367-.199.5-.133.132-.299.198-.499.198s-.369-.066-.505-.198c-.137-.133-.204-.299-.204-.5Z"/>
        <path class="cls-2" d="M66.783,50.761c0-.967.344-1.726,1.031-2.277s1.625-.827,2.814-.827h3.104v-.591c0-.745-.233-1.335-.698-1.772-.466-.437-1.1-.655-1.901-.655-.573,0-1.055.09-1.445.269-.391.18-.757.466-1.101.859-.18.208-.373.312-.58.312-.18,0-.33-.062-.451-.188-.122-.125-.183-.277-.183-.456,0-.129.035-.254.107-.376.329-.522.802-.941,1.418-1.257.615-.315,1.36-.473,2.234-.473,1.267,0,2.248.337,2.942,1.01.695.673,1.043,1.583,1.043,2.729v6.048c0,.187-.069.346-.208.479-.138.132-.302.198-.49.198-.189,0-.352-.066-.486-.198-.134-.133-.201-.292-.201-.479v-.795c-.266.502-.687.892-1.263,1.171s-1.205.419-1.885.419c-1.182,0-2.111-.275-2.788-.827s-1.015-1.325-1.015-2.32ZM68.212,50.761c0,.587.207,1.046.623,1.375.415.329,1.042.494,1.88.494.823,0,1.532-.247,2.127-.741.594-.494.892-1.186.892-2.073v-.924h-3.104c-.745,0-1.334.157-1.768.473s-.649.78-.649,1.396Z"/>
        <path class="cls-2" d="M77.074,48.602c0-1.683.397-2.982,1.192-3.899s1.908-1.375,3.341-1.375c.565,0,1.075.069,1.53.21.455.139.831.331,1.128.574.297.244.552.509.763.795.211.287.371.598.479.935s.184.646.23.929c.047.283.07.564.07.844,0,.215-.006.381-.017.5-.011.117-.041.26-.091.424-.051.165-.14.287-.269.365-.129.079-.298.118-.505.118h-6.424c0,1.096.295,1.968.886,2.616s1.402.972,2.434.972c.572,0,1.06-.084,1.461-.253.4-.168.795-.398,1.182-.692.143-.093.275-.14.397-.14.179,0,.329.062.451.188.121.126.183.278.183.457,0,.18-.079.348-.236.505-.158.157-.358.317-.602.478-.244.162-.629.328-1.155.5s-1.087.258-1.681.258c-1.512,0-2.681-.436-3.508-1.305-.827-.871-1.24-2.204-1.24-4.002ZM78.503,47.785h5.919c0-.43-.043-.82-.129-1.171s-.228-.686-.425-1.005c-.197-.318-.487-.566-.87-.746-.383-.179-.847-.269-1.391-.269-.938,0-1.675.283-2.208.849-.533.566-.832,1.347-.896,2.342Z"/>
        <path class="cls-2" d="M87.978,51.223v-12.568c0-.186.071-.35.215-.488.143-.141.308-.21.494-.21.193,0,.357.068.494.204.136.137.204.301.204.494v12.568c0,.838.293,1.257.881,1.257.179,0,.334.063.467.188s.199.281.199.467c0,.187-.066.342-.199.467s-.288.188-.467.188c-.738,0-1.304-.216-1.697-.649-.395-.434-.591-1.072-.591-1.918Z"/>
      </g>
    </g>
  </g>
</svg>